<svg width="22" height="22" viewBox="0 0 22 22" fill="none" xmlns="http://www.w3.org/2000/svg">
<path d="M11.1338 15.213C11.2214 15.2976 11.2912 15.3987 11.3393 15.5105C11.3873 15.6224 11.4126 15.7427 11.4137 15.8644C11.4147 15.9861 11.3915 16.1068 11.3454 16.2195C11.2993 16.3321 11.2313 16.4345 11.1452 16.5205C11.0591 16.6066 10.9568 16.6747 10.8441 16.7208C10.7315 16.7668 10.6108 16.79 10.4891 16.789C10.3673 16.7879 10.2471 16.7626 10.1352 16.7146C10.0234 16.6666 9.92224 16.5967 9.83768 16.5092L8.54151 15.213L5.94918 17.8063C6.12106 17.9783 6.21757 18.2115 6.21749 18.4547C6.2174 18.6978 6.12072 18.931 5.94872 19.1029C5.77672 19.2748 5.54348 19.3713 5.30031 19.3712C5.05715 19.3711 4.82398 19.2744 4.65209 19.1024L3.35593 17.8063C3.18392 17.6344 3.08724 17.4012 3.08716 17.158C3.08707 16.9149 3.18359 16.6816 3.35547 16.5096C3.52735 16.3376 3.76052 16.2409 4.00369 16.2409C4.24685 16.2408 4.48009 16.3373 4.65209 16.5092L7.24534 13.9168L5.94918 12.6207C5.7822 12.4478 5.6898 12.2162 5.69189 11.9759C5.69398 11.7355 5.79039 11.5056 5.96034 11.3357C6.1303 11.1657 6.36021 11.0693 6.60056 11.0672C6.84091 11.0651 7.07246 11.1575 7.24534 11.3245L11.1338 15.213ZM11.7828 14.5649L7.89251 10.6755L15.6713 2.89758L18.9127 3.54567L19.5608 6.787L11.7828 14.5649Z" fill="#FF1313"/>
</svg>
